<svg width="24" height="24" viewBox="0 0 24 24" xmlns="http://www.w3.org/2000/svg">
    <g stroke="#FFF" fill="none" fill-rule="evenodd">
        <path d="M17 14.898c0 .128-.024.294-.071.5a2.827 2.827 0 0 1-.15.487c-.099.237-.387.488-.866.753-.445.241-.885.362-1.32.362a2.745 2.745 0 0 1-.782-.114 5.819 5.819 0 0 1-.337-.103 27.655 27.655 0 0 1-.394-.145c-.19-.071-.306-.114-.348-.128a6.433 6.433 0 0 1-1.243-.59c-.606-.374-1.233-.884-1.879-1.53-.646-.646-1.156-1.273-1.53-1.879a6.435 6.435 0 0 1-.59-1.243 15.343 15.343 0 0 0-.128-.348c-.07-.189-.12-.32-.145-.394a5.814 5.814 0 0 1-.103-.337A2.747 2.747 0 0 1 7 9.408c0-.436.12-.876.362-1.321.265-.479.516-.767.753-.867.118-.052.28-.102.487-.149.206-.047.372-.071.5-.071.067 0 .116.007.15.021.085.029.21.209.376.54.052.09.123.218.213.384.09.165.173.316.248.45.076.135.15.262.22.38l.125.178c.069.1.12.183.153.252s.05.136.05.203c0 .094-.068.213-.203.355a3.466 3.466 0 0 1-.44.39 4.284 4.284 0 0 0-.44.377c-.136.132-.203.241-.203.326a.48.48 0 0 0 .035.16c.024.064.044.113.06.146.017.033.05.09.1.17.05.08.077.126.082.135.36.649.771 1.205 1.235 1.67.464.463 1.02.875 1.67 1.235l.134.082c.081.05.138.083.17.1.034.016.083.036.147.06a.479.479 0 0 0 .16.035c.085 0 .193-.067.326-.202s.258-.282.376-.44c.119-.16.25-.306.391-.441.142-.135.26-.203.355-.203.066 0 .134.017.203.05.068.033.152.084.252.153.1.068.158.11.177.124.119.071.245.145.38.22.135.076.286.159.451.249.166.09.294.16.384.213.331.166.511.291.54.376a.397.397 0 0 1 .02.15H17z"/>
        <circle cx="12" cy="12" r="11.5"/>
    </g>
</svg>
