<svg width="24" height="24" viewBox="0 0 24 24" xmlns="http://www.w3.org/2000/svg">
    <g fill="#FFF" fill-rule="nonzero">
        <path d="M6.056 9.645a2.248 2.248 0 0 0-2.243 2.243 2.248 2.248 0 0 0 2.243 2.243A2.248 2.248 0 0 0 8.3 11.888a2.248 2.248 0 0 0-2.243-2.243zm0 3.453c-.655 0-1.184-.53-1.184-1.185S5.4 10.73 6.056 10.73a1.183 1.183 0 1 1 0 2.369zM11.888 9.645a2.248 2.248 0 0 0-2.243 2.243 2.248 2.248 0 0 0 2.243 2.243 2.248 2.248 0 0 0 2.243-2.243 2.248 2.248 0 0 0-2.243-2.243zm0 3.453c-.655 0-1.185-.53-1.185-1.185s.53-1.184 1.185-1.184 1.184.529 1.184 1.184c0 .655-.529 1.185-1.184 1.185zM17.944 9.645a2.248 2.248 0 0 0-2.243 2.243 2.248 2.248 0 0 0 2.243 2.243 2.248 2.248 0 0 0 2.243-2.243 2.248 2.248 0 0 0-2.243-2.243zm0 3.453c-.655 0-1.185-.53-1.185-1.185s.53-1.184 1.185-1.184 1.184.529 1.184 1.184c0 .655-.529 1.185-1.184 1.185z"/>
        <path d="m23.88 22.206-1.92-4.219a11.668 11.668 0 0 0 1.717-6.139C23.677 5.331 18.371 0 11.827 0 5.28 0 0 5.305 0 11.848c0 6.544 5.307 11.849 11.851 11.849 2.174 0 4.296-.606 6.14-1.718l4.22 1.895c.178.075.355.126.532.126.328 0 .657-.126.884-.379.38-.379.48-.935.253-1.415zm-1.011.657c-.025.025-.126.101-.227.05l-4.473-2.045c-.076-.026-.152-.051-.228-.051a.51.51 0 0 0-.277.076 10.78 10.78 0 0 1-5.812 1.718c-5.964 0-10.79-4.826-10.79-10.763 0-5.936 4.826-10.787 10.79-10.787 5.963 0 10.764 4.825 10.764 10.787 0 2.072-.58 4.068-1.718 5.811a.516.516 0 0 0-.025.505l2.047 4.472c.05.126 0 .202-.05.227h-.001z"/>
    </g>
</svg>
