<svg width="115" height="103" viewBox="0 0 115 103" xmlns="http://www.w3.org/2000/svg">
    <g fill="none" fill-rule="evenodd">
        <path d="M89.66 44.161V24.887a3.858 3.858 0 0 0-4.356-3.854l-57.822 7.709a3.855 3.855 0 0 0-3.353 3.855v40.63a15.417 15.417 0 0 0-21.06 21.07 15.42 15.42 0 0 0 28.77-7.733v-31.32l50.112-6.689v16.962a15.42 15.42 0 1 0 7.71 13.338l-.001-34.694z" fill="#E0DBD6" fill-rule="nonzero"/>
        <path d="M71.773 40.83V25.444a3.08 3.08 0 0 0-3.477-3.077L22.14 28.521a3.078 3.078 0 0 0-2.676 3.078v32.433a12.307 12.307 0 1 0-8.284 22.782 12.307 12.307 0 0 0 14.438-12.136V49.677l40.002-5.34v13.54a12.311 12.311 0 0 0-17.721 6.454 12.306 12.306 0 0 0 9.437 16.33 12.311 12.311 0 0 0 14.438-12.137V40.83z" stroke="#827468" stroke-width="2"/>
        <g transform="translate(79)">
            <circle fill="#B85A2E" cx="17.5" cy="17.5" r="17.5"/>
            <path d="m26.164 19.17-8.046 8.087a.594.594 0 0 1-.844 0l-8.047-8.088a5.715 5.715 0 0 1-.01-8.043 5.65 5.65 0 0 1 8.012.001l.467.47.467-.47a5.647 5.647 0 0 1 8.002-.011c2.212 2.235 2.209 5.833 0 8.053z" fill="#FFF" fill-rule="nonzero"/>
        </g>
        <path d="M108.297 54.703a.364.364 0 0 1-.516 0l-4.925-4.95a3.498 3.498 0 0 1-.007-4.922 3.458 3.458 0 0 1 4.904 0l.286.288.286-.288a3.456 3.456 0 0 1 4.897-.006 3.5 3.5 0 0 1 0 4.928l-4.925 4.95z" fill="#827468" fill-rule="nonzero"/>
    </g>
</svg>
