<svg width="103" height="112" viewBox="0 0 103 112" xmlns="http://www.w3.org/2000/svg">
    <g fill="none" fill-rule="evenodd">
        <g fill-rule="nonzero">
            <path d="M45.589 111.999A3.586 3.586 0 0 1 42 108.424V73.47c0-1.664.944-3.752 2.195-4.854L69.917 45.95a3.893 3.893 0 0 1 2.584-.95c.97 0 1.888.337 2.583.95l25.72 22.668c1.252 1.102 2.196 3.19 2.196 4.855v34.952A3.585 3.585 0 0 1 99.413 112l-53.824-.001z" fill="#E0DBD6"/>
            <path d="m84.382 33.943-4.925 4.95a.364.364 0 0 1-.516 0l-4.925-4.95a3.498 3.498 0 0 1-.007-4.923 3.458 3.458 0 0 1 4.904 0l.286.288.286-.287a3.456 3.456 0 0 1 4.897-.007 3.5 3.5 0 0 1 0 4.929z" fill="#827468"/>
            <path d="M63.457 27.893a.364.364 0 0 1-.516 0l-4.925-4.95a3.498 3.498 0 0 1-.007-4.923 3.458 3.458 0 0 1 4.904 0l.286.288.286-.287a3.456 3.456 0 0 1 4.897-.007 3.5 3.5 0 0 1 0 4.929l-4.925 4.95z" fill="#B85A2E"/>
            <path d="m88.382 5.943-4.925 4.95a.364.364 0 0 1-.516 0l-4.925-4.95a3.498 3.498 0 0 1-.007-4.923 3.458 3.458 0 0 1 4.904 0l.286.288.286-.287a3.456 3.456 0 0 1 4.897-.007 3.5 3.5 0 0 1 0 4.929z" fill="#827468"/>
            <path d="M38 29c.959 0 1.869.329 2.556.939l32.046 28.42C73.969 59.57 75 61.867 75 63.697v43.821c0 .96-.39 1.831-1.019 2.462a3.452 3.452 0 0 1-2.45 1.02l-67.06-.002c-.956 0-1.824-.39-2.452-1.02A3.476 3.476 0 0 1 1 107.517V63.695c0-1.83 1.03-4.126 2.398-5.338l32.048-28.418c.687-.61 1.597-.939 2.555-.939z" stroke="#827468" stroke-width="2"/>
        </g>
        <g transform="translate(20 63)">
            <circle fill="#B85A2E" cx="17.5" cy="17.5" r="17.5"/>
            <path d="m26.164 19.17-8.046 8.087a.594.594 0 0 1-.844 0l-8.047-8.088a5.715 5.715 0 0 1-.01-8.043 5.65 5.65 0 0 1 8.012.001l.467.47.467-.47a5.647 5.647 0 0 1 8.002-.011c2.212 2.235 2.209 5.833 0 8.053z" fill="#FFF" fill-rule="nonzero"/>
        </g>
    </g>
</svg>
