<svg width="204" height="29" viewBox="0 0 204 29" xmlns="http://www.w3.org/2000/svg" xmlns:xlink="http://www.w3.org/1999/xlink">
    <defs>
        <path id="289syb018a" d="M0 29h204V0H0z"/>
    </defs>
    <g fill="none" fill-rule="evenodd">
        <path fill="#79695E" d="M0 1v23h6.236v-8.214h10.639v-5.29H6.235v-3.91H18V1z"/>
        <g>
            <path d="M28.883 17.361v-.813c-.592-.26-1.434-.455-2.306-.455-1.713 0-2.71.878-2.71 2.178v.065c0 1.203.872 1.919 2.087 1.919 1.714 0 2.929-1.138 2.929-2.894m-10.718 1.333v-.065c0-3.641 2.648-5.527 6.605-5.527 1.558 0 3.085.325 4.05.683v-.293c0-1.82-1.09-2.86-3.364-2.86-1.776 0-3.147.357-4.643.975L19.598 7.25c1.9-.813 3.926-1.365 6.823-1.365 3.022 0 5.079.747 6.418 2.145 1.278 1.3 1.808 3.121 1.808 5.592v10.111h-5.858v-1.82c-1.153 1.332-2.742 2.21-4.954 2.21-3.209 0-5.67-1.918-5.67-5.429M36.984 15.02v-.065c0-4.974 3.707-9.168 9.035-9.168 3.459 0 5.764 1.56 7.197 3.934l-4.019 3.12c-.81-1.17-1.713-1.852-3.147-1.852-1.9 0-3.302 1.755-3.302 3.901v.065c0 2.276 1.37 4 3.364 4 1.402 0 2.306-.684 3.24-1.822l3.958 2.992c-1.558 2.405-3.802 4.03-7.509 4.03-5.079 0-8.817-4.16-8.817-9.135" fill="#79695E"/>
            <mask id="b3dchpnnyb" fill="#fff">
                <use xlink:href="#289syb018a"/>
            </mask>
            <path d="M55.522 23.733h5.92V6.145h-5.92v17.588zm-.125-19.181h6.17V0h-6.17v4.552zM64.744 6.145h5.92v2.47c1.09-1.462 2.648-2.86 5.047-2.86 3.583 0 5.733 2.47 5.733 6.47v11.508h-5.92v-9.526c0-1.918-.966-2.958-2.368-2.958-1.433 0-2.492 1.04-2.492 2.958v9.526h-5.92V6.145zM96.555 14.012v-.065c0-1.95-1.433-3.38-3.427-3.38-2.025 0-3.459 1.462-3.459 3.413v.065c0 1.95 1.434 3.381 3.459 3.381 1.994 0 3.427-1.463 3.427-3.414M84.342 26.984l1.9-4.096c1.807 1.04 3.614 1.658 5.889 1.658 2.96 0 4.424-1.528 4.424-4.324v-.683c-1.184 1.43-2.742 2.634-5.203 2.634-4.144 0-7.478-3.121-7.478-8.16v-.066c0-5.071 3.396-8.192 7.29-8.192 2.525 0 4.02 1.072 5.298 2.47v-2.08h5.92v13.362c0 3.218-.686 5.462-2.182 7.022-1.526 1.593-3.894 2.47-7.415 2.47-3.271 0-6.013-.714-8.443-2.015M104.96 22.955c.162-1.016.258-2.661.289-4.937h1.034c.05 1.546.135 2.458.251 2.739.117.28.398.58.845.897.446.317 1.044.6 1.795.849.75.249 1.476.373 2.175.373a5.609 5.609 0 0 0 2.83-.738c.862-.492 1.491-1.138 1.887-1.937.395-.799.593-1.653.593-2.564 0-.698-.1-1.301-.297-1.81a2.797 2.797 0 0 0-.905-1.23c-.406-.312-.908-.532-1.506-.659a78.581 78.581 0 0 0-2.252-.317 31.998 31.998 0 0 1-2.875-.492c-1.055-.339-1.83-.736-2.328-1.19-.497-.456-.9-1.054-1.21-1.795a6.155 6.155 0 0 1-.463-2.397 7.08 7.08 0 0 1 .935-3.532c.624-1.106 1.547-1.966 2.77-2.58 1.221-.614 2.548-.92 3.978-.92.862 0 1.802.12 2.822.361 1.019.242 1.97.592 2.852 1.051a18.138 18.138 0 0 0-.304 1.866c-.06.577-.107 1.426-.137 2.548h-1.034c-.031-1.63-.077-2.52-.137-2.667a3.958 3.958 0 0 0-1.035-1.032c-1.045-.614-2.135-.921-3.27-.921-1.472 0-2.646.468-3.523 1.404-.877.936-1.316 2.15-1.316 3.64 0 .9.157 1.595.472 2.087.314.491.877.885 1.689 1.181.557.202 1.47.39 2.738.564 1.268.174 2.409.362 3.423.563.953.296 1.658.648 2.115 1.055.456.407.831.941 1.125 1.602.295.661.442 1.436.442 2.324 0 2.105-.837 3.94-2.51 5.505-1.674 1.565-3.84 2.348-6.497 2.348-2.008 0-3.828-.413-5.461-1.239M138.323 22.828v.905a59.042 59.042 0 0 0-3.012-.11c-.751 0-1.512.036-2.282.11.06-.857.106-1.82.137-2.89-.609.51-1.334 1.202-2.176 2.08a2.23 2.23 0 0 1-.563.445 5.115 5.115 0 0 1-1.308.548c-.437.111-.959.166-1.567.166-.822 0-1.51-.116-2.062-.349a3.688 3.688 0 0 1-1.422-1.063c-.295-.35-.52-.802-.677-1.358-.158-.555-.236-1.224-.236-2.008 0-.37.013-.72.038-1.048.025-.328.038-.65.038-.968v-2.715c0-.275-.015-.968-.046-2.08-.02-.698-.066-1.153-.137-1.365a.536.536 0 0 0-.197-.253c-.153-.106-.421-.16-.807-.16-.558 0-.999-.005-1.323-.015v-.905c2.18-.254 3.763-.661 4.746-1.222.163-.096.29-.143.38-.143.072 0 .13.026.176.079.045.053.068.133.068.238 0 .085-.005.19-.015.318-.04.339-.076.99-.107 1.952-.06 1.768-.09 2.953-.09 3.556v3.096c0 1.291.083 2.199.25 2.723.168.524.492.942.974 1.254.481.312 1.077.468 1.787.468.487 0 .972-.087 1.453-.262a4.195 4.195 0 0 0 1.301-.754 5.49 5.49 0 0 0 .867-.984c.223-.307.37-.542.442-.707.07-.163.116-.404.136-.722.051-.931.077-1.857.077-2.778v-1.334c0-.275-.016-.968-.046-2.08-.02-.698-.066-1.153-.137-1.365a.536.536 0 0 0-.198-.253c-.152-.106-.42-.16-.806-.16-.558 0-1-.005-1.324-.015v-.905c2.18-.254 3.763-.661 4.747-1.222.162-.096.289-.143.38-.143.071 0 .13.026.175.079.046.053.069.133.069.238a4.2 4.2 0 0 1-.016.318 50.99 50.99 0 0 0-.106 2.016c-.061 1.725-.091 2.889-.091 3.492v2.175l.03 2.207c.03 1.28.05 2.032.061 2.254.01.53.066.916.167 1.16.05.094.117.176.198.245a.92.92 0 0 0 .365.167c.061.01.624.026 1.689.047M143.51 1.381a1.6 1.6 0 0 1 1.21.524c.33.35.495.773.495 1.27 0 .487-.168.905-.502 1.254-.335.35-.736.524-1.202.524-.477 0-.883-.175-1.217-.524a1.749 1.749 0 0 1-.502-1.254c0-.497.167-.92.502-1.27.334-.35.74-.524 1.217-.524m-3.712 9.303v-.905c1.967-.233 3.62-.677 4.96-1.333l.334.254c-.081 2.254-.122 3.979-.122 5.175v2.89c.05 2.751.081 4.238.092 4.46.01.53.065.916.167 1.159.05.095.116.177.198.246.08.069.202.124.365.167.06.01.624.026 1.689.047v.89a81.135 81.135 0 0 0-3.697-.112c-.812 0-2.14.037-3.986.111v-.889l1.445-.016c.213-.01.378-.05.494-.119a.719.719 0 0 0 .267-.262c.111-.211.182-.587.213-1.127 0-.137.03-1.656.09-4.556V13.97c0-1.577-.05-2.513-.151-2.81a.65.65 0 0 0-.327-.357c-.158-.08-.835-.12-2.031-.12M161.387 21.908l-.609 1.063c-.7.392-1.392.677-2.077.857-.684.18-1.458.27-2.32.27-2.13 0-3.826-.669-5.088-2.008-1.263-1.338-1.895-3.177-1.895-5.517 0-1.238.17-2.314.51-3.23.34-.915.758-1.622 1.255-2.12.335-.348.971-.8 1.91-1.357.938-.555 1.594-.912 1.97-1.071.69-.307 1.516-.46 2.48-.46.912 0 1.734.1 2.464.301a5.13 5.13 0 0 1 1.4.635 75.439 75.439 0 0 0-.259 1.85c-.05.418-.116 1.177-.198 2.278h-.867c-.06-1.027-.122-1.667-.182-1.921a.86.86 0 0 0-.274-.429c-.365-.296-.835-.553-1.408-.77a5.27 5.27 0 0 0-1.878-.325c-.852 0-1.59.182-2.214.547-.624.365-1.108.945-1.453 1.739-.345.793-.517 1.778-.517 2.952 0 1.44.243 2.742.73 3.906.487 1.164 1.149 2.014 1.986 2.548.836.534 1.772.801 2.807.801.517 0 1.021-.066 1.513-.198s1.124-.383 1.894-.754l.32.413zM166.407 1.381a1.6 1.6 0 0 1 1.21.524c.33.35.494.773.494 1.27 0 .487-.167.905-.502 1.254-.334.35-.735.524-1.202.524-.477 0-.882-.175-1.217-.524a1.749 1.749 0 0 1-.502-1.254c0-.497.167-.92.502-1.27.335-.35.74-.524 1.217-.524m-3.712 9.303v-.905c1.968-.233 3.62-.677 4.96-1.333l.335.254c-.082 2.254-.122 3.979-.122 5.175v2.89c.05 2.751.08 4.238.091 4.46.01.53.066.916.167 1.159.05.095.117.177.198.246s.203.124.365.167c.061.01.624.026 1.689.047v.89a81.135 81.135 0 0 0-3.697-.112c-.811 0-2.14.037-3.986.111v-.889l1.445-.016c.213-.01.378-.05.495-.119a.719.719 0 0 0 .266-.262c.111-.211.183-.587.213-1.127 0-.137.03-1.656.091-4.556V13.97c0-1.577-.05-2.513-.152-2.81a.65.65 0 0 0-.327-.357c-.157-.08-.834-.12-2.03-.12M183.918 12.16c-.69-.793-1.412-1.373-2.168-1.738-.756-.365-1.498-.548-2.229-.548a4.2 4.2 0 0 0-2.297.667c-.7.445-1.235 1.117-1.605 2.016-.37.9-.555 1.98-.555 3.239 0 1.936.461 3.45 1.384 4.54.923 1.09 2.034 1.635 3.332 1.635.68 0 1.288-.148 1.826-.444.537-.297 1.009-.73 1.415-1.302a4.473 4.473 0 0 0 .776-1.905c.08-.466.121-1.614.121-3.445V12.16zm-2.51-9.985V1.27c1.126-.127 2.076-.278 2.852-.452a21.693 21.693 0 0 0 2.275-.643l.198.143c-.04.9-.087 2.635-.137 5.207l-.061 2.54v9.937c0 1.08.017 2.014.053 2.802.036.789.099 1.26.19 1.413.092.154.244.278.457.373.213.096.846.19 1.901.286v.857c-1.237-.074-2.11-.11-2.616-.11-.436 0-1.329.036-2.678.11.03-.73.056-1.714.076-2.953-.406.308-.95.768-1.635 1.382a37.237 37.237 0 0 0-1.605 1.508c-.812.211-1.527.317-2.146.317-1.146 0-2.2-.296-3.164-.889-.964-.592-1.706-1.452-2.229-2.58-.522-1.127-.783-2.394-.783-3.801 0-1.059.16-2.061.479-3.009.32-.947.723-1.68 1.21-2.199.273-.296.897-.746 1.87-1.349.974-.603 1.763-1.04 2.367-1.31a4.77 4.77 0 0 1 1.97-.404c.639 0 1.265.082 1.879.246.613.164 1.21.415 1.787.754V5.27c0-1.471-.06-2.366-.182-2.683a.427.427 0 0 0-.228-.254c-.203-.096-.903-.148-2.1-.16zM193.792 14.764c.284.032.823.063 1.616.095 1.514.053 2.556.08 3.125.08 1.351 0 2.24-.027 2.668-.08.01-.253.015-.448.015-.586 0-1.667-.326-2.891-.976-3.672-.65-.78-1.52-1.171-2.607-1.171-1.148 0-2.073.427-2.774 1.282-.701.855-1.057 2.206-1.067 4.052zm9.752 6.509-.487 1.143c-.7.455-1.212.756-1.537.905a9.098 9.098 0 0 1-1.635.563c-.614.153-1.26.23-1.94.23-1.339 0-2.55-.29-3.633-.873-1.084-.582-1.925-1.452-2.526-2.611-.6-1.16-.9-2.516-.9-4.072 0-1.217.16-2.315.48-3.294.319-.98.681-1.701 1.087-2.167.294-.339.75-.728 1.37-1.167a9.569 9.569 0 0 1 1.84-1.04 6.439 6.439 0 0 1 2.602-.524c1.135 0 2.162.27 3.08.81.918.54 1.59 1.275 2.016 2.206.426.932.639 1.985.639 3.16 0 .296-.02.656-.06 1.08a15.84 15.84 0 0 1-1.966.285 42.81 42.81 0 0 1-3.291.127h-4.891c.02 1.514.27 2.738.753 3.675.481.937 1.146 1.627 1.993 2.072a5.61 5.61 0 0 0 2.64.666c.618 0 1.234-.103 1.848-.31.613-.205 1.371-.584 2.274-1.134l.244.27z" fill="#79695E" mask="url(#b3dchpnnyb)"/>
        </g>
    </g>
</svg>
