<svg width="111" height="81" viewBox="0 0 111 81" xmlns="http://www.w3.org/2000/svg">
    <g fill="none" fill-rule="evenodd">
        <path d="M46 0a8 8 0 0 0-8 8v34.624l.001.062L38 55.823a3 3 0 0 0 4.723 2.456l10.91-7.655H99a8 8 0 0 0 8-8V8a8 8 0 0 0-8-8H46z" fill="#B3A59A" opacity=".399"/>
        <path d="m109.526 23.644-7.15 7.2a.528.528 0 0 1-.75 0l-7.151-7.2a5.094 5.094 0 0 1-.01-7.16 5.015 5.015 0 0 1 7.12 0l.416.418.415-.417a5.012 5.012 0 0 1 7.11-.01 5.097 5.097 0 0 1 0 7.169z" fill="#827468" fill-rule="nonzero"/>
        <g transform="translate(0 36)">
            <path d="M56 1c1.933 0 3.683.784 4.95 2.05A6.978 6.978 0 0 1 63 8v33.845c0 .552-.224 1.052-.586 1.414a2 2 0 0 1-2.56.225l-7.672-5.361H18.449a6.978 6.978 0 0 1-4.95-2.05 6.978 6.978 0 0 1-2.05-4.95V8c0-1.933.783-3.683 2.05-4.95A6.978 6.978 0 0 1 18.45 1z" stroke="#827468" stroke-width="2"/>
            <ellipse fill="#B85A2E" cx="12.082" cy="19.236" rx="12.082" ry="12.063"/>
            <path d="M12.508 25.961a.41.41 0 0 1-.582 0L6.37 20.386a3.935 3.935 0 0 1-.007-5.544 3.905 3.905 0 0 1 5.531 0l.323.324.322-.323a3.903 3.903 0 0 1 5.525-.008 3.938 3.938 0 0 1 0 5.551l-5.556 5.575z" fill="#FFF" fill-rule="nonzero"/>
        </g>
    </g>
</svg>
